<svg xmlns="http://www.w3.org/2000/svg" width="136" height="56" fill="none" viewBox="0 0 136 56">
  <path fill="#000" d="M1.68 21V10h2.14v2.1h.52l-.52.5c0-.88.26-1.567.78-2.06.52-.493 1.24-.74 2.16-.74 1.093 0 1.967.353 2.62 1.06.653.693.98 1.633.98 2.82V21H8.2v-7.08c0-.72-.193-1.273-.58-1.66-.387-.387-.913-.58-1.58-.58-.68 0-1.22.207-1.62.62-.387.4-.58.987-.58 1.76V21H1.68Zm16.312.2c-.893 0-1.68-.173-2.36-.52a3.793 3.793 0 0 1-1.54-1.5c-.36-.64-.54-1.387-.54-2.24v-2.88c0-.867.18-1.613.54-2.24.36-.64.873-1.133 1.54-1.48.68-.36 1.467-.54 2.36-.54.907 0 1.694.18 2.36.54.667.347 1.18.84 1.54 1.48.36.627.54 1.373.54 2.24v1.96h-6.8v.92c0 .813.2 1.433.6 1.86.413.427 1.007.64 1.78.64.627 0 1.133-.107 1.52-.32.387-.227.627-.553.72-.98h2.14c-.16.933-.64 1.68-1.44 2.24-.8.547-1.787.82-2.96.82Zm2.36-6.48v-.68c0-.8-.2-1.42-.6-1.86-.4-.44-.986-.66-1.76-.66-.76 0-1.347.22-1.76.66-.4.44-.6 1.067-.6 1.88v.5l4.88-.02-.16.18Zm9.612 6.48c-1.32 0-2.373-.38-3.16-1.14-.786-.773-1.18-1.82-1.18-3.14V10h2.16v6.92c0 .76.194 1.353.58 1.78.387.413.92.62 1.6.62.694 0 1.234-.207 1.62-.62.4-.427.6-1.02.6-1.78V10h2.16v6.92c0 1.32-.4 2.367-1.2 3.14-.786.76-1.846 1.14-3.18 1.14Zm13.213-.2c-1 0-1.78-.273-2.34-.82-.56-.547-.84-1.307-.84-2.28v-5.94h-3.04V10h3.04V6.9h2.16V10h4.3v1.96h-4.3v5.94c0 .76.366 1.14 1.1 1.14h3V21h-3.08Zm6.832 0V10h2.08v2.1h.52l-.66 1.3c0-1.187.26-2.08.78-2.68.52-.613 1.293-.92 2.32-.92 1.173 0 2.1.367 2.78 1.1.693.72 1.04 1.713 1.04 2.98v.74h-2.22v-.56c0-.787-.2-1.387-.6-1.8-.387-.427-.934-.64-1.64-.64-.707 0-1.26.213-1.66.64-.387.427-.58 1.027-.58 1.8V21h-2.16Zm15.952.18c-.907 0-1.693-.173-2.36-.52a3.666 3.666 0 0 1-1.54-1.48c-.36-.64-.54-1.393-.54-2.26v-2.84c0-.88.18-1.633.54-2.26.36-.64.873-1.133 1.54-1.48s1.453-.52 2.36-.52c.907 0 1.693.173 2.36.52.667.347 1.18.84 1.54 1.48.36.627.54 1.38.54 2.26v2.84c0 .867-.18 1.62-.54 2.26a3.666 3.666 0 0 1-1.54 1.48c-.667.347-1.453.52-2.36.52Zm0-1.9c.733 0 1.3-.2 1.7-.6.4-.413.6-1 .6-1.76v-2.84c0-.773-.2-1.36-.6-1.76-.4-.4-.967-.6-1.7-.6-.72 0-1.287.2-1.7.6-.4.4-.6.987-.6 1.76v2.84c0 .76.2 1.347.6 1.76.413.4.98.6 1.7.6ZM73.633 21V10h2.14v2.1h.52l-.52.5c0-.88.26-1.567.78-2.06.52-.493 1.24-.74 2.16-.74 1.094 0 1.967.353 2.62 1.06.654.693.98 1.633.98 2.82V21h-2.16v-7.08c0-.72-.193-1.273-.58-1.66-.386-.387-.913-.58-1.58-.58-.68 0-1.22.207-1.62.62-.386.4-.58.987-.58 1.76V21h-2.16ZM86 1h50v22H86z"/>
  <path fill="#000" d="M0 23h117v-1H0z"/>
  <path fill="#fff" d="M92 10.98c-.52 0-.947-.147-1.28-.44-.32-.293-.48-.68-.48-1.16 0-.48.16-.86.48-1.14.333-.293.76-.44 1.28-.44.533 0 .96.147 1.28.44.32.28.48.66.48 1.14 0 .48-.16.867-.48 1.16-.32.293-.747.44-1.28.44Zm0 8.22c-.52 0-.947-.147-1.28-.44-.32-.293-.48-.673-.48-1.14 0-.493.16-.88.48-1.16.333-.293.76-.44 1.28-.44.533 0 .96.147 1.28.44.32.28.48.667.48 1.16 0 .467-.16.847-.48 1.14-.32.293-.747.44-1.28.44Zm10.572-.2-3.64-11h2.2l2.26 7.04c.147.413.274.833.38 1.26.12.413.207.74.26.98.067-.24.154-.567.26-.98.12-.427.24-.847.36-1.26l2.22-7.04h2.18l-3.64 11h-2.84Zm9.092 3.6V8h2.14v2.1h.46l-.46.5c0-.867.267-1.547.8-2.04.547-.507 1.274-.76 2.18-.76 1.107 0 1.987.373 2.64 1.12.667.733 1 1.74 1 3.02v3.1c0 .853-.153 1.593-.46 2.22a3.396 3.396 0 0 1-1.26 1.44c-.533.333-1.173.5-1.92.5-.893 0-1.613-.247-2.16-.74-.546-.507-.82-1.193-.82-2.06l.46.5h-.5l.06 2.56v3.14h-2.16Zm4.38-5.28c.707 0 1.254-.2 1.64-.6.4-.413.6-1.007.6-1.78v-2.88c0-.773-.2-1.36-.6-1.76-.386-.413-.933-.62-1.64-.62-.68 0-1.22.213-1.62.64-.4.413-.6.993-.6 1.74v2.88c0 .747.2 1.333.6 1.76.4.413.94.62 1.62.62Zm7.613 1.68V8h2.14v2.1h.52l-.52.5c0-.88.26-1.567.78-2.06.52-.493 1.24-.74 2.16-.74 1.093 0 1.966.353 2.62 1.06.653.693.98 1.633.98 2.82V19h-2.16v-7.08c0-.72-.194-1.273-.58-1.66-.387-.387-.914-.58-1.58-.58-.68 0-1.22.207-1.62.62-.387.4-.58.987-.58 1.76V19h-2.16Z"/>
  <path fill="#000" d="M4.2 37.112c-.616 0-1.148-.117-1.596-.35a2.54 2.54 0 0 1-1.05-1.008c-.243-.448-.364-.975-.364-1.582v-2.044c0-.616.121-1.143.364-1.582a2.54 2.54 0 0 1 1.05-1.008c.448-.233.98-.35 1.596-.35.616 0 1.148.117 1.596.35.448.233.793.57 1.036 1.008.252.439.378.961.378 1.568v2.058c0 .607-.126 1.134-.378 1.582a2.453 2.453 0 0 1-1.036 1.008c-.448.233-.98.35-1.596.35Zm0-1.12c.55 0 .98-.154 1.288-.462.308-.308.462-.76.462-1.358v-2.044c0-.597-.154-1.05-.462-1.358-.308-.308-.737-.462-1.288-.462-.541 0-.97.154-1.288.462-.308.308-.462.76-.462 1.358v2.044c0 .597.154 1.05.462 1.358.317.308.747.462 1.288.462Zm5.483 3.528V29.3h1.26v1.47h.252l-.252.294c0-.588.19-1.05.574-1.386.392-.345.905-.518 1.54-.518.774 0 1.39.257 1.848.77.466.504.7 1.2.7 2.086v2.254c0 .588-.108 1.097-.322 1.526-.206.43-.5.76-.883.994-.373.233-.82.35-1.344.35-.625 0-1.133-.173-1.525-.518-.393-.345-.588-.807-.588-1.386l.252.294h-.28l.028 1.75v2.24h-1.26Zm2.954-3.472c.531 0 .947-.159 1.245-.476.309-.317.463-.775.463-1.372v-2.1c0-.597-.155-1.055-.463-1.372-.298-.317-.713-.476-1.245-.476-.514 0-.925.163-1.232.49-.308.327-.462.78-.462 1.358v2.1c0 .579.154 1.031.462 1.358.308.327.718.49 1.232.49Zm8.352 1.092c-.607 0-1.139-.121-1.596-.364a2.634 2.634 0 0 1-1.05-1.022c-.243-.448-.364-.966-.364-1.554v-2.1c0-.597.121-1.115.364-1.554.252-.439.602-.78 1.05-1.022.457-.243.99-.364 1.596-.364.607 0 1.134.121 1.582.364a2.52 2.52 0 0 1 1.05 1.022c.252.439.378.957.378 1.554v1.358h-4.788v.742c0 .607.154 1.073.462 1.4.308.317.747.476 1.316.476.485 0 .877-.084 1.176-.252.299-.177.48-.439.546-.784h1.26c-.084.644-.401 1.157-.952 1.54-.541.373-1.218.56-2.03.56Zm1.778-4.522V32.1c0-.607-.154-1.073-.462-1.4-.299-.327-.737-.49-1.316-.49-.57 0-1.008.163-1.316.49-.308.327-.462.793-.462 1.4v.406h3.654l-.098.112ZM26.472 37v-7.7h1.26v1.47h.266l-.266.294c0-.607.182-1.073.546-1.4.364-.336.868-.504 1.512-.504.774 0 1.39.238 1.848.714.457.476.686 1.125.686 1.946V37h-1.26v-5.04c0-.55-.15-.97-.448-1.26-.29-.299-.686-.448-1.19-.448-.523 0-.938.159-1.246.476-.3.317-.448.775-.448 1.372V37h-1.26Zm11.068.112c-.523 0-.98-.08-1.372-.238a2.34 2.34 0 0 1-.924-.7 2.14 2.14 0 0 1-.406-1.064h1.26a.99.99 0 0 0 .448.644c.252.159.584.238.994.238h.588c.495 0 .864-.098 1.106-.294a1.01 1.01 0 0 0 .364-.812c0-.327-.112-.583-.336-.77-.215-.196-.537-.327-.966-.392l-1.036-.168c-.756-.13-1.32-.364-1.694-.7-.364-.345-.546-.845-.546-1.498 0-.69.22-1.223.658-1.596.439-.383 1.097-.574 1.974-.574h.532c.738 0 1.33.173 1.778.518.448.345.719.812.812 1.4h-1.26a.896.896 0 0 0-.42-.574c-.224-.15-.527-.224-.91-.224h-.532c-.476 0-.826.089-1.05.266-.214.177-.322.443-.322.798 0 .317.093.55.28.7.187.15.48.257.882.322l1.036.168c.83.13 1.433.373 1.806.728.383.355.574.868.574 1.54 0 .71-.228 1.27-.686 1.68-.448.401-1.13.602-2.044.602h-.588Zm8.633 0c-.616 0-1.148-.117-1.596-.35a2.54 2.54 0 0 1-1.05-1.008c-.243-.448-.364-.975-.364-1.582v-2.044c0-.616.121-1.143.364-1.582a2.54 2.54 0 0 1 1.05-1.008c.448-.233.98-.35 1.596-.35.616 0 1.148.117 1.596.35.448.233.793.57 1.036 1.008.252.439.378.961.378 1.568v2.058c0 .607-.126 1.134-.378 1.582a2.453 2.453 0 0 1-1.036 1.008c-.448.233-.98.35-1.596.35Zm0-1.12c.55 0 .98-.154 1.288-.462.308-.308.462-.76.462-1.358v-2.044c0-.597-.154-1.05-.462-1.358-.308-.308-.738-.462-1.288-.462-.542 0-.971.154-1.288.462-.308.308-.462.76-.462 1.358v2.044c0 .597.154 1.05.462 1.358.317.308.746.462 1.288.462Zm8.38 1.148c-.886 0-1.596-.261-2.128-.784-.532-.532-.798-1.25-.798-2.156v-4.9h1.26v4.9c0 .579.15 1.031.448 1.358.299.317.705.476 1.218.476.523 0 .934-.159 1.232-.476.308-.327.462-.78.462-1.358v-4.9h1.26v4.9c0 .905-.27 1.624-.812 2.156-.541.523-1.255.784-2.142.784Zm5.763-.14v-7.7h1.232v1.47h.294l-.406.91c0-.83.177-1.456.532-1.876.364-.43.9-.644 1.61-.644.812 0 1.456.257 1.932.77.485.504.728 1.19.728 2.058v.462h-1.26v-.35c0-.607-.15-1.069-.448-1.386-.29-.327-.705-.49-1.246-.49-.532 0-.952.163-1.26.49-.299.327-.448.789-.448 1.386V37h-1.26Zm11.096.14c-.616 0-1.157-.117-1.624-.35a2.52 2.52 0 0 1-1.064-1.008c-.252-.448-.378-.975-.378-1.582v-2.1c0-.616.126-1.143.378-1.582a2.52 2.52 0 0 1 1.064-1.008c.467-.233 1.008-.35 1.624-.35.887 0 1.6.238 2.142.714.542.476.826 1.125.854 1.946h-1.26c-.028-.495-.196-.873-.504-1.134-.298-.27-.71-.406-1.232-.406-.55 0-.99.159-1.316.476-.326.308-.49.751-.49 1.33V34.2c0 .579.164 1.027.49 1.344.327.317.766.476 1.316.476.523 0 .934-.135 1.232-.406.308-.27.476-.649.504-1.134h1.26c-.028.821-.312 1.47-.854 1.946-.541.476-1.255.714-2.142.714Zm8.339 0c-.607 0-1.139-.121-1.596-.364a2.634 2.634 0 0 1-1.05-1.022c-.243-.448-.364-.966-.364-1.554v-2.1c0-.597.121-1.115.364-1.554.252-.439.602-.78 1.05-1.022.457-.243.99-.364 1.596-.364.606 0 1.134.121 1.582.364a2.52 2.52 0 0 1 1.05 1.022c.252.439.378.957.378 1.554v1.358h-4.788v.742c0 .607.154 1.073.462 1.4.308.317.746.476 1.316.476.485 0 .877-.084 1.176-.252.298-.177.48-.439.546-.784h1.26c-.084.644-.402 1.157-.952 1.54-.542.373-1.218.56-2.03.56Zm1.778-4.522V32.1c0-.607-.154-1.073-.462-1.4-.299-.327-.738-.49-1.316-.49-.57 0-1.008.163-1.316.49-.308.327-.462.793-.462 1.4v.406h3.654l-.098.112ZM3.08 55v-5.782H.84V48.07h2.24v-1.33c0-.607.191-1.083.574-1.428.383-.355.91-.532 1.582-.532H7.49v1.148H5.236c-.29 0-.513.07-.672.21-.15.13-.224.331-.224.602v1.33h3.15v1.148H4.34V55H3.08Zm6.869 0v-7.7h1.232v1.47h.294l-.406.91c0-.83.177-1.456.531-1.876.364-.43.901-.644 1.61-.644.813 0 1.456.257 1.932.77.486.504.729 1.19.729 2.058v.462h-1.26v-.35c0-.607-.15-1.069-.449-1.386-.289-.327-.704-.49-1.246-.49-.532 0-.952.163-1.26.49-.298.327-.447.789-.447 1.386V55h-1.26Zm11.04.14c-.607 0-1.139-.121-1.596-.364a2.634 2.634 0 0 1-1.05-1.022c-.243-.448-.364-.966-.364-1.554v-2.1c0-.597.121-1.115.364-1.554.252-.439.602-.78 1.05-1.022.457-.243.99-.364 1.596-.364.607 0 1.134.121 1.582.364a2.52 2.52 0 0 1 1.05 1.022c.252.439.378.957.378 1.554v1.358h-4.788v.742c0 .607.154 1.073.462 1.4.308.317.747.476 1.316.476.485 0 .877-.084 1.176-.252.299-.177.48-.439.546-.784h1.26c-.084.644-.401 1.157-.952 1.54-.541.373-1.218.56-2.03.56Zm1.778-4.522V50.1c0-.607-.154-1.073-.462-1.4-.299-.327-.737-.49-1.316-.49-.57 0-1.008.163-1.316.49-.308.327-.462.793-.462 1.4v.406h3.654l-.098.112Zm6.617 4.522c-.607 0-1.14-.121-1.596-.364a2.634 2.634 0 0 1-1.05-1.022c-.243-.448-.364-.966-.364-1.554v-2.1c0-.597.12-1.115.364-1.554.252-.439.602-.78 1.05-1.022.457-.243.989-.364 1.596-.364.606 0 1.134.121 1.582.364a2.52 2.52 0 0 1 1.05 1.022c.252.439.378.957.378 1.554v1.358h-4.788v.742c0 .607.154 1.073.462 1.4.308.317.746.476 1.316.476.485 0 .877-.084 1.176-.252.298-.177.48-.439.546-.784h1.26c-.084.644-.402 1.157-.952 1.54-.542.373-1.218.56-2.03.56Zm1.778-4.522V50.1c0-.607-.154-1.073-.462-1.4-.3-.327-.738-.49-1.316-.49-.57 0-1.008.163-1.316.49-.308.327-.462.793-.462 1.4v.406h3.654l-.098.112Zm14.03 4.522c-.765 0-1.367-.205-1.805-.616-.43-.41-.644-.975-.644-1.694v-1.75c0-.495.126-.91.378-1.246.261-.345.63-.588 1.106-.728l-.098-.14c-.29-.392-.5-.756-.63-1.092a2.763 2.763 0 0 1-.196-1.008c0-.448.102-.84.308-1.176.214-.336.508-.593.882-.77.382-.187.826-.28 1.33-.28.541 0 1.008.098 1.4.294.401.196.709.471.924.826.214.355.322.78.322 1.274h-1.26c0-.27-.056-.504-.168-.7a1.105 1.105 0 0 0-.476-.448 1.644 1.644 0 0 0-.742-.154 1.55 1.55 0 0 0-.672.14 1.013 1.013 0 0 0-.434.406 1.16 1.16 0 0 0-.154.616c0 .233.046.485.14.756.102.27.242.527.42.77l2.408 3.318.994-1.778h1.316l-1.582 2.786L49.897 55H48.51l-.882-1.218c-.691.905-1.503 1.358-2.436 1.358Zm.07-1.12c.318 0 .621-.103.91-.308.3-.215.551-.509.757-.882l-2.058-2.842c-.29.047-.509.163-.658.35-.14.187-.21.434-.21.742v1.75c0 .373.107.667.322.882.224.205.536.308.938.308Zm17.462 1.092c-.523 0-.98-.08-1.372-.238a2.34 2.34 0 0 1-.924-.7 2.14 2.14 0 0 1-.406-1.064h1.26c.056.27.205.485.448.644.252.159.583.238.994.238h.588c.494 0 .863-.098 1.106-.294.242-.205.364-.476.364-.812 0-.327-.112-.583-.336-.77-.215-.196-.537-.327-.966-.392l-1.036-.168c-.756-.13-1.32-.364-1.694-.7-.364-.345-.546-.845-.546-1.498 0-.69.22-1.223.658-1.596.438-.383 1.096-.574 1.974-.574h.532c.737 0 1.33.173 1.778.518.448.345.718.812.812 1.4h-1.26a.896.896 0 0 0-.42-.574c-.224-.15-.528-.224-.91-.224h-.532c-.476 0-.826.089-1.05.266-.215.177-.322.443-.322.798 0 .317.093.55.28.7.186.15.48.257.882.322l1.036.168c.83.13 1.432.373 1.806.728.382.355.574.868.574 1.54 0 .71-.229 1.27-.686 1.68-.448.401-1.13.602-2.044.602h-.588Zm7.96.028c-.812 0-1.451-.205-1.918-.616-.466-.42-.7-.985-.7-1.694 0-.719.234-1.283.7-1.694.467-.41 1.097-.616 1.89-.616h2.38v-.77c0-.476-.144-.84-.434-1.092-.28-.261-.681-.392-1.204-.392-.457 0-.84.098-1.148.294-.308.187-.485.443-.532.77h-1.26c.084-.663.397-1.19.938-1.582.542-.392 1.218-.588 2.03-.588.887 0 1.587.229 2.1.686.514.457.77 1.078.77 1.862V55h-1.232v-1.47h-.21l.21-.21c0 .56-.22 1.003-.658 1.33-.43.327-1.003.49-1.722.49Zm.308-.994c.598 0 1.088-.15 1.47-.448.383-.299.574-.681.574-1.148v-1.092h-2.352c-.42 0-.751.117-.994.35-.242.233-.364.55-.364.952 0 .43.145.77.434 1.022.299.243.71.364 1.232.364Zm7.639.854v-5.782h-2.24V48.07h2.24v-1.33c0-.607.191-1.083.574-1.428.382-.355.91-.532 1.582-.532h2.254v1.148h-2.254c-.29 0-.514.07-.672.21-.15.13-.224.331-.224.602v1.33h3.15v1.148h-3.15V55h-1.26Zm9.514.14c-.606 0-1.138-.121-1.596-.364a2.634 2.634 0 0 1-1.05-1.022c-.242-.448-.364-.966-.364-1.554v-2.1c0-.597.122-1.115.364-1.554.252-.439.602-.78 1.05-1.022.458-.243.99-.364 1.596-.364.607 0 1.134.121 1.582.364a2.52 2.52 0 0 1 1.05 1.022c.252.439.378.957.378 1.554v1.358h-4.788v.742c0 .607.154 1.073.462 1.4.308.317.747.476 1.316.476.486 0 .878-.084 1.176-.252a1.11 1.11 0 0 0 .546-.784h1.26c-.084.644-.401 1.157-.952 1.54-.541.373-1.218.56-2.03.56Zm1.778-4.522V50.1c0-.607-.154-1.073-.462-1.4-.298-.327-.737-.49-1.316-.49-.569 0-1.008.163-1.316.49-.308.327-.462.793-.462 1.4v.406h3.654l-.098.112Z"/>
</svg>
